<svg xmlns="http://www.w3.org/2000/svg" width="24" height="24" viewBox="0 0 24 24">
  <g id="ico_zoomin" transform="translate(-8 -8)">
    <rect id="Rectángulo_14222" data-name="Rectángulo 14222" width="24" height="24" transform="translate(8 8)" fill="none"/>
    <g id="Grupo_16220" data-name="Grupo 16220" transform="translate(-2031 -1325)">
      <path id="Trazado_20777" data-name="Trazado 20777" d="M10.85,1.5H0A1.5,1.5,0,0,1-1.5,0,1.5,1.5,0,0,1,0-1.5H10.85A1.5,1.5,0,0,1,12.35,0,1.5,1.5,0,0,1,10.85,1.5Z" transform="translate(2045.575 1345.5)" fill="#7c8bad"/>
      <path id="Trazado_20778" data-name="Trazado 20778" d="M10.85,1.5H0A1.5,1.5,0,0,1-1.5,0,1.5,1.5,0,0,1,0-1.5H10.85A1.5,1.5,0,0,1,12.35,0,1.5,1.5,0,0,1,10.85,1.5Z" transform="translate(2051 1350.925) rotate(-90)" fill="#7c8bad"/>
    </g>
  </g>
</svg>
