<svg xmlns="http://www.w3.org/2000/svg" xmlns:xlink="http://www.w3.org/1999/xlink" width="40" height="40" viewBox="0 0 40 40">
  <defs>
    <clipPath id="clip-path">
      <rect id="Rectángulo_14239" data-name="Rectángulo 14239" width="30.785" height="30.785" fill="#5c2472"/>
    </clipPath>
    <clipPath id="clip-path-2">
      <rect id="Rectángulo_14243" data-name="Rectángulo 14243" width="18.412" height="13.382" transform="translate(0 0)" fill="#5c2472"/>
    </clipPath>
  </defs>
  <g id="ico_mediciones_normal" transform="translate(-1513 -1706)">
    <circle id="Elipse_273" data-name="Elipse 273" cx="20" cy="20" r="20" transform="translate(1513 1706)" fill="#eaeffa"/>
    <g id="ico_lista" transform="translate(1521.98 1714.777)">
      <g id="Grupo_16245" data-name="Grupo 16245" transform="translate(-4 -4)" clip-path="url(#clip-path)">
        <g id="Grupo_16255" data-name="Grupo 16255" transform="translate(6.187 8.701)">
          <g id="Grupo_16254" data-name="Grupo 16254" clip-path="url(#clip-path-2)">
            <path id="Trazado_34869" data-name="Trazado 34869" d="M17.412,2.5H6.64a1,1,0,0,1,0-2H17.412a1,1,0,0,1,0,2" fill="#5c2472"/>
            <path id="Trazado_34870" data-name="Trazado 34870" d="M3,1.5A1.5,1.5,0,1,1,1.5,0,1.5,1.5,0,0,1,3,1.5" fill="#5c2472"/>
            <path id="Trazado_34871" data-name="Trazado 34871" d="M3,6.691a1.5,1.5,0,1,1-1.5-1.5A1.5,1.5,0,0,1,3,6.691" fill="#5c2472"/>
            <path id="Trazado_34872" data-name="Trazado 34872" d="M3,11.883a1.5,1.5,0,1,1-1.5-1.5,1.5,1.5,0,0,1,1.5,1.5" fill="#5c2472"/>
            <path id="Trazado_34873" data-name="Trazado 34873" d="M17.412,7.691H6.64a1,1,0,0,1,0-2H17.412a1,1,0,0,1,0,2" fill="#5c2472"/>
            <path id="Trazado_34874" data-name="Trazado 34874" d="M17.412,12.883H6.64a1,1,0,0,1,0-2H17.412a1,1,0,0,1,0,2" fill="#5c2472"/>
          </g>
        </g>
      </g>
    </g>
  </g>
</svg>
