<svg xmlns="http://www.w3.org/2000/svg" xmlns:xlink="http://www.w3.org/1999/xlink" width="34" height="34" viewBox="0 0 34 34">
  <defs>
    <filter id="Elipse_212" x="0" y="0" width="34" height="34" filterUnits="userSpaceOnUse">
      <feOffset dy="3" input="SourceAlpha"/>
      <feGaussianBlur stdDeviation="3" result="blur"/>
      <feFlood flood-color="#afafaf" flood-opacity="0.161"/>
      <feComposite operator="in" in2="blur"/>
      <feComposite in="SourceGraphic"/>
    </filter>
  </defs>
  <g id="Grupo_16755" data-name="Grupo 16755" transform="translate(666 -530) rotate(90)">
    <g id="Grupo_16749" data-name="Grupo 16749" transform="translate(-105 1193) rotate(-90)">
      <g id="ico_cerrar" transform="translate(-535 469)">
        <g transform="matrix(1, 0, 0, 1, 1062, 166)" filter="url(#Elipse_212)">
          <circle id="Elipse_212-2" data-name="Elipse 212" cx="8" cy="8" r="8" transform="translate(9 6)" fill="#fff"/>
        </g>
      </g>
      <path id="Trazado_36595" data-name="Trazado 36595" d="M3.842,4.193-.719.382a.782.782,0,0,1-.1-1.1.782.782,0,0,1,1.1-.1L3.839,2.153,7.375-.817a.782.782,0,0,1,1.1.1.782.782,0,0,1-.1,1.1Z" transform="translate(540.17 647.832)" fill="#5c2472"/>
    </g>
  </g>
</svg>
